<?xml version="1.0" standalone="no"?>
<!DOCTYPE svg PUBLIC "-//W3C//DTD SVG 20010904//EN"
 "http://www.w3.org/TR/2001/REC-SVG-20010904/DTD/svg10.dtd">
<svg version="1.0" xmlns="http://www.w3.org/2000/svg"
 width="1936.000000pt" height="1936.000000pt" viewBox="0 0 1936.000000 1936.000000"
 preserveAspectRatio="xMidYMid meet">
<metadata>
Created by potrace 1.11, written by Peter Selinger 2001-2013
</metadata>
<g transform="translate(0.000000,1936.000000) scale(0.100000,-0.100000)"
fill="#000000" stroke="none">
<path d="M9298 19355 c-2 -2 -64 -6 -138 -10 -74 -4 -155 -8 -179 -10 -88 -7
-197 -16 -236 -20 -22 -2 -67 -6 -100 -9 -33 -4 -70 -8 -82 -10 -12 -3 -49 -7
-82 -11 -33 -3 -68 -7 -78 -9 -10 -2 -40 -7 -68 -10 -101 -15 -121 -17 -145
-21 -14 -3 -43 -7 -65 -10 -34 -6 -241 -43 -325 -59 -14 -2 -90 -19 -170 -36
-80 -17 -153 -33 -163 -35 -10 -2 -27 -7 -37 -10 -10 -3 -28 -8 -39 -10 -42
-10 -57 -13 -121 -30 -36 -9 -72 -19 -80 -21 -208 -51 -667 -197 -895 -285
-118 -45 -433 -173 -469 -190 -22 -10 -46 -19 -53 -19 -7 0 -13 -5 -13 -12 0
-6 -3 -9 -6 -5 -4 3 -25 -4 -48 -15 -22 -12 -43 -22 -46 -23 -5 0 -62 -27
-225 -106 -54 -27 -105 -49 -112 -49 -7 0 -13 -3 -13 -7 0 -5 -10 -13 -23 -19
-128 -62 -347 -182 -542 -298 -66 -39 -128 -75 -138 -81 -9 -5 -69 -44 -133
-85 -64 -41 -123 -79 -132 -85 -9 -5 -40 -27 -69 -47 -29 -21 -55 -38 -58 -38
-3 0 -11 -5 -18 -10 -33 -29 -138 -100 -147 -100 -5 0 -10 -5 -10 -10 0 -6
-11 -15 -25 -20 -14 -5 -25 -14 -25 -20 0 -5 -4 -10 -10 -10 -10 0 -223 -160
-228 -172 -2 -4 -8 -8 -13 -8 -5 0 -18 -8 -28 -17 -11 -10 -26 -23 -33 -28 -7
-6 -41 -33 -74 -60 -34 -28 -79 -63 -99 -80 -21 -16 -48 -40 -61 -52 -13 -13
-26 -23 -29 -23 -3 0 -13 -8 -23 -17 -10 -10 -47 -43 -82 -73 -35 -30 -83 -74
-107 -97 -23 -23 -43 -40 -43 -39 0 13 -425 -407 -555 -548 -179 -194 -162
-175 -275 -306 -83 -97 -155 -185 -268 -329 -15 -18 -39 -48 -54 -66 -16 -18
-28 -37 -28 -42 0 -5 -9 -15 -20 -23 -11 -8 -20 -18 -20 -22 0 -6 -74 -109
-115 -160 -8 -9 -22 -29 -32 -45 -9 -15 -20 -30 -23 -33 -18 -17 -180 -261
-180 -271 0 -5 -4 -9 -9 -9 -5 0 -14 -13 -21 -30 -7 -16 -16 -30 -20 -30 -4 0
-10 -8 -14 -17 -3 -10 -14 -30 -23 -45 -32 -47 -209 -341 -240 -398 -17 -30
-41 -73 -54 -95 -66 -118 -128 -238 -205 -395 -47 -96 -94 -191 -104 -211 -11
-20 -17 -38 -15 -41 3 -3 -1 -11 -10 -18 -8 -7 -15 -17 -15 -22 0 -5 -14 -39
-30 -75 -17 -35 -30 -70 -30 -77 0 -6 -6 -18 -12 -25 -7 -6 -14 -16 -14 -22
-1 -5 -3 -11 -4 -14 -1 -3 -3 -8 -4 -12 -1 -5 -10 -26 -20 -48 -32 -71 -35
-78 -82 -200 -44 -116 -123 -329 -128 -350 -1 -5 -7 -21 -13 -35 -12 -28 -111
-333 -118 -365 -2 -11 -18 -67 -35 -125 -17 -58 -32 -114 -34 -125 -3 -11 -5
-20 -6 -20 -1 0 -3 -7 -5 -15 -1 -8 -8 -35 -15 -60 -7 -25 -13 -52 -15 -60 -2
-8 -12 -51 -24 -96 -11 -44 -28 -114 -37 -155 -8 -41 -18 -83 -20 -94 -3 -11
-7 -33 -10 -50 -3 -16 -9 -46 -14 -65 -7 -29 -25 -124 -54 -290 -7 -39 -34
-220 -41 -270 -3 -25 -8 -56 -10 -70 -2 -14 -7 -50 -11 -80 -11 -98 -13 -114
-19 -165 -3 -27 -7 -75 -10 -105 -2 -30 -7 -82 -10 -115 -23 -235 -30 -435
-29 -825 0 -396 7 -599 30 -825 3 -33 7 -80 9 -105 4 -54 14 -143 21 -186 3
-17 6 -46 8 -65 10 -92 17 -145 21 -159 2 -8 7 -39 10 -69 4 -30 9 -63 11 -75
2 -11 6 -38 9 -61 3 -22 10 -62 15 -90 5 -27 11 -61 14 -75 2 -14 7 -36 10
-50 3 -14 8 -41 11 -60 10 -59 13 -74 19 -100 3 -14 12 -56 21 -95 8 -38 18
-83 21 -100 3 -16 12 -57 20 -90 9 -33 17 -67 19 -75 8 -39 67 -263 85 -325
12 -38 23 -79 26 -91 2 -12 10 -40 19 -63 8 -23 15 -43 15 -46 1 -11 108 -343
117 -365 3 -8 7 -19 8 -25 8 -29 151 -405 180 -470 7 -16 25 -59 40 -95 27
-66 33 -80 80 -185 81 -182 240 -505 312 -635 14 -25 41 -74 61 -110 19 -36
38 -69 42 -75 4 -5 18 -30 32 -55 14 -25 51 -88 82 -140 32 -52 63 -104 69
-115 7 -11 24 -39 40 -62 15 -23 27 -46 27 -52 0 -6 4 -11 8 -11 5 0 14 -10
21 -22 23 -45 108 -175 126 -194 6 -6 19 -27 30 -47 11 -20 23 -37 27 -37 5 0
8 -7 8 -15 0 -8 4 -15 8 -15 4 0 16 -14 26 -32 11 -17 25 -39 32 -47 7 -9 61
-81 119 -159 58 -79 110 -149 116 -155 5 -7 53 -66 105 -132 53 -66 100 -122
105 -123 5 -2 9 -8 9 -13 0 -5 8 -17 18 -27 9 -10 37 -42 62 -72 25 -29 56
-65 70 -80 14 -15 40 -45 59 -66 134 -154 545 -574 562 -574 5 0 9 -7 9 -15 0
-8 4 -15 8 -15 4 0 32 -23 62 -51 30 -28 81 -74 113 -102 33 -29 69 -61 81
-72 13 -11 36 -31 52 -45 16 -14 59 -50 94 -80 36 -31 101 -85 145 -120 44
-35 82 -67 85 -70 3 -3 43 -34 90 -70 47 -35 87 -68 88 -72 2 -4 7 -8 12 -8 7
0 134 -91 200 -143 9 -7 49 -34 90 -62 41 -27 77 -52 80 -55 13 -13 179 -121
218 -141 12 -7 22 -16 22 -21 0 -4 5 -8 11 -8 6 0 29 -12 52 -27 23 -16 51
-33 62 -40 24 -15 182 -109 210 -126 11 -6 40 -23 65 -38 44 -26 107 -60 265
-146 124 -66 519 -261 545 -268 3 0 25 -10 50 -22 151 -70 406 -173 615 -250
119 -43 507 -173 525 -175 3 0 16 -5 30 -10 27 -10 398 -113 440 -122 14 -3
42 -10 63 -15 20 -5 37 -7 37 -4 0 3 7 0 15 -7 9 -7 18 -10 22 -7 3 4 13 2 22
-2 9 -5 34 -12 56 -15 22 -4 56 -11 75 -16 19 -5 46 -11 60 -14 14 -3 59 -12
100 -20 111 -22 122 -24 280 -50 186 -32 283 -46 420 -62 30 -3 64 -8 75 -10
11 -2 49 -7 85 -10 36 -3 81 -7 100 -9 19 -2 73 -7 120 -10 47 -3 102 -8 123
-10 168 -20 921 -27 1187 -12 197 11 471 33 530 42 14 2 52 7 85 10 33 3 71 8
85 10 14 2 50 7 80 10 30 4 63 9 74 11 10 2 44 6 75 10 54 6 65 8 121 18 14 3
42 8 62 11 21 2 57 9 80 14 24 5 59 12 78 15 19 3 60 10 90 16 30 6 66 13 80
16 14 2 36 7 50 10 14 3 32 7 40 9 35 8 166 37 183 40 10 2 27 7 37 10 10 3
28 8 39 10 12 3 29 7 39 9 13 3 139 36 267 70 65 17 104 28 125 36 30 10 171
53 185 56 37 7 375 125 540 189 39 14 75 27 80 28 6 2 15 5 20 9 6 4 40 18 75
31 36 13 85 33 110 44 25 11 89 39 144 62 167 71 709 336 742 362 7 5 31 20
55 33 123 64 154 82 159 87 3 4 25 17 50 29 25 12 47 25 50 29 3 3 19 13 35
21 17 8 32 17 35 20 3 3 34 23 70 44 36 22 117 73 180 114 63 41 116 74 118
73 1 -1 9 4 16 11 8 7 22 19 32 25 11 7 60 41 109 75 50 35 107 74 128 88 20
14 37 28 37 33 0 4 4 7 10 7 8 0 202 144 236 175 6 5 22 17 34 25 12 8 28 20
34 25 6 6 40 34 76 63 36 28 80 66 98 82 18 17 34 30 36 30 4 0 37 27 85 70
15 14 52 45 81 70 29 25 73 63 96 85 24 22 82 76 130 120 222 204 578 576 742
774 21 24 42 49 47 55 11 12 178 217 223 275 15 18 39 48 55 66 15 18 27 37
27 42 0 5 9 15 20 23 11 8 20 18 20 21 0 4 33 52 74 107 41 54 100 137 131
183 32 46 61 86 66 87 5 2 9 8 9 13 0 5 36 63 80 130 44 66 80 124 80 130 0 5
5 9 10 9 6 0 10 6 10 14 0 8 3 16 7 18 10 4 42 57 50 81 3 9 9 17 14 17 5 0 9
4 9 8 0 5 24 49 53 98 54 90 85 144 140 244 16 30 33 60 37 65 22 29 335 666
337 685 0 3 15 36 32 75 64 140 254 630 264 680 2 6 6 16 10 22 5 7 10 21 12
30 2 10 17 59 34 109 33 101 84 263 87 279 1 6 10 37 20 70 10 33 19 65 20 70
2 6 10 37 20 70 9 33 18 68 20 78 9 40 14 57 42 172 27 106 76 326 88 395 2
14 7 39 11 55 3 17 7 37 8 45 1 8 10 58 19 110 20 110 20 114 40 245 9 55 21
141 27 190 6 50 12 101 14 115 2 14 7 54 10 90 4 36 8 81 10 100 31 321 40
526 40 950 -1 328 -5 493 -20 685 -11 139 -16 192 -19 215 -2 14 -7 59 -10
100 -4 41 -8 86 -11 100 -2 14 -7 45 -9 70 -10 89 -17 145 -23 175 -2 17 -7
46 -9 65 -2 19 -6 46 -9 60 -3 14 -7 43 -10 65 -3 22 -15 85 -25 140 -11 55
-22 118 -25 140 -4 22 -11 60 -17 85 -6 25 -12 58 -14 73 -2 16 -6 32 -9 37
-3 4 -7 25 -11 46 -7 46 -100 427 -113 464 -5 14 -19 63 -31 110 -12 47 -26
94 -31 105 -4 11 -13 38 -19 61 -12 47 -126 400 -140 429 -15 35 -60 160 -60
168 0 5 -11 33 -25 63 -14 30 -25 57 -25 60 0 7 -131 323 -165 399 -115 255
-294 612 -399 795 -48 83 -77 133 -114 200 -14 25 -29 47 -34 48 -4 2 -8 8 -8
13 0 12 -182 303 -192 307 -4 2 -8 7 -8 12 0 10 -194 295 -221 326 -11 11 -19
25 -19 31 0 6 -3 13 -7 15 -5 2 -48 57 -97 123 -50 66 -94 125 -98 130 -5 6
-33 42 -64 80 -30 39 -67 85 -82 104 -15 19 -37 44 -49 57 -13 13 -23 26 -23
29 0 3 -8 13 -17 23 -10 10 -38 42 -63 72 -25 29 -56 65 -70 80 -14 16 -50 56
-80 90 -177 199 -562 585 -726 727 -11 10 -47 41 -80 70 -97 85 -116 101 -183
156 -35 29 -78 66 -97 84 -19 17 -34 29 -34 26 0 -2 -6 2 -13 9 -8 7 -28 24
-46 38 -18 14 -39 31 -46 38 -8 6 -16 12 -19 12 -3 0 -14 8 -24 18 -37 35 -72
62 -81 62 -5 0 -11 4 -13 8 -2 4 -64 52 -138 105 -74 54 -143 104 -153 112 -9
8 -20 15 -23 15 -3 0 -23 12 -43 28 -20 15 -43 32 -52 37 -9 6 -57 37 -105 69
-49 32 -118 77 -154 99 -36 22 -88 55 -117 74 -28 18 -56 33 -62 33 -6 0 -11
4 -11 8 0 5 -19 19 -42 31 -24 12 -65 35 -93 52 -27 16 -75 43 -105 59 -30 17
-80 44 -110 61 -137 77 -564 285 -745 364 -287 124 -390 165 -550 222 -38 13
-79 28 -90 33 -29 13 -316 109 -340 114 -11 3 -56 16 -100 31 -129 41 -606
167 -685 180 -19 3 -51 10 -70 15 -19 5 -46 11 -60 14 -14 3 -59 12 -100 20
-115 23 -126 25 -255 47 -119 20 -207 34 -275 43 -138 19 -174 23 -245 31 -27
3 -66 8 -85 10 -55 8 -168 18 -350 30 -58 5 -123 10 -145 12 -48 4 -912 12
-917 8z"/>
</g>
</svg>
