<svg id="Layer_2" data-name="Layer 2" xmlns="http://www.w3.org/2000/svg" viewBox="0 0 75.22 179.33"><defs><style>.cls-1{fill:#1d1d1b;}</style></defs><path class="cls-1" d="M39.62.34a12.14,12.14,0,0,0-6.75,22.24,5.61,5.61,0,0,1,.45-2.22,10.09,10.09,0,1,1,10.32,1.39,5.78,5.78,0,0,1-.1,2.23A12.14,12.14,0,0,0,39.62.34Z" transform="translate(0 -0.34)"/><path class="cls-1" d="M17.37,7.55a12.13,12.13,0,0,0-2.65,24A5.91,5.91,0,0,1,15,29.48a10.1,10.1,0,1,1,10.51-3.76,5.83,5.83,0,0,1,.44,2.59A12.12,12.12,0,0,0,17.37,7.55Z" transform="translate(0 -0.34)"/><path class="cls-1" d="M40.38,179.66a42.75,42.75,0,0,1-13.68-2.25l-.75-.29-22.9-47.5A43,43,0,0,1,.33,109C1.7,99.18,0,71.93,0,71.66v-.22l0-.22c.16-1,1.11-6.07,4.8-6.91C7,63.82,9.3,65,11.76,67.88l1.52-42.63c.19-5.6,3.81-8.55,7.28-8.57h0c3.52,0,7.19,2.9,7.49,9.39.48,10,2,34.1,2,34.35s.07.73.1,1.08l0-1,.28-39.12c.05-7.14,3.69-9.72,6.8-9.76h.07c3.82,0,8,3.69,8.22,9.71.25,7.55,1.57,34.4,1.9,41,7.09,2.36,9.45,9.59,10.19,13,3.59.25,6.6,2.31,10.18,9.33A15.06,15.06,0,0,0,71,89.25c1.62,1.63,2.6,2.86,3.84,9.22,2,10.41-4.24,43.07-4.51,44.45l-.1.55-.37.41c-2.39,2.74-1.84,11.81-.93,16.88l.12.68-.31.61C61.54,176.4,49.67,179.66,40.38,179.66Zm-11.46-5.82c4.29,1.42,25.29,7.13,35.83-13-.5-3.13-2-14.22,1.62-19.15.78-4.14,6.17-33.41,4.42-42.4-1.06-5.43-1.68-6.06-2.72-7.1a19.31,19.31,0,0,1-3.91-5.57c-3.76-7.39-5.88-7.24-8.12-7.09l-2,.14-.19-2c0-.1-1.12-10.09-8.81-11.72L43.5,65.6,43.42,64c0-.33-1.69-33.95-2-42.58-.12-3.71-2.5-5.74-4.12-5.74h0c-1.64,0-2.72,2.26-2.74,5.69l-.29,39.17c0,.09-.13,4.22-.41,8.31-.54,7.91-1,10.07-3.33,10.13s-2.75-2.67-3.17-5.3-.92-7.14-1.41-13c0-.28-1.5-24.4-2-34.45-.18-3.78-1.83-5.47-3.39-5.47h0c-1.51,0-3.1,1.59-3.2,4.6L15.59,75.76c1.92,10.12-.69,27.07-1.05,29.34l-4.06-.65c1.59-9.82,2.92-27.13-.23-31.77s-4.5-4.37-4.51-4.37c-.54.12-1.32,1.77-1.62,3.33.18,2.91,1.65,28.09.28,37.93C3.09,119,6.75,127.84,6.79,127.93Z" transform="translate(0 -0.34)"/><path class="cls-1" d="M46.89,84.78A102.65,102.65,0,0,1,43.42,64l4.1-.2a100.27,100.27,0,0,0,3.31,19.82Z" transform="translate(0 -0.34)"/><path class="cls-1" d="M59.67,94.38c-4.09-5.47-5.73-16.18-5.8-16.63l4.06-.61c0,.1,1.55,10.14,5,14.77Z" transform="translate(0 -0.34)"/></svg>
